# xmcd
#
# Track frame offsets: 
#        150
#        10584
#        23505
#        35152
#        48514
#        60431
#        72726
#        86907
#        99817
#        112515
#
# Disc length: 1709 seconds
#
# Revision: 1
# Processed by: cddbd v1.5.2PL0 Copyright (c) Steve Scherf et al.
# Submitted via: ExactAudioCopy v1.0b1
#
DISCID=7206ab0a
DTITLE=Johnny Cash - A Thing Called Love
DYEAR=1972
DGENRE=Country
TTITLE0=Kate
TTITLE1=Melva's Wine
TTITLE2=A Thing Called Love
TTITLE3=I Promise You
TTITLE4=Papa Was A Good Man
TTITLE5=Tear Stained Letter
TTITLE6=Mississippi Sand
TTITLE7=Daddy
TTITLE8=Arkansas Lovin' Man
TTITLE9=The Miracle Man
EXTD=(c)2002/ (p)1972 Columbia Records CBS S 64898\n\n
EXTT0=
EXTT1=
EXTT2=
EXTT3=
EXTT4=
EXTT5=
EXTT6=
EXTT7=
EXTT8=
EXTT9=
PLAYORDER=
